# xmcd
#
# Track frame offsets: 
#        150
#        23392
#        48872
#        72312
#        96772
#        125672
#        146272
#        171097
#        194029
#        214311
#        231391
#
# Disc length: 3361 seconds
#
# Revision: 0
# Processed by: cddbd v1.5.2PL0 Copyright (c) Steve Scherf et al.
# Submitted via: ExactAudioCopy v1.0b3
#
DISCID=9d0d1f0b
DTITLE=Huong Lan, Thanh Tuyen - Bong Co May
DYEAR=1990
DGENRE=
TTITLE0=Huong Lan - Bong co may
TTITLE1=Thanh Tuyen - Sau thang quan truong
TTITLE2=Huong Lan - Rung la thap
TTITLE3=Thanh Tuyen - Chiec ao que huong
TTITLE4=Huong Lan - Nguoi o lai Charlie
TTITLE5=Thanh Tuyen - Da ta
TTITLE6=Huong Lan - Dau chan ky niem
TTITLE7=Thanh Tuyen - Muon dam tim anh
TTITLE8=Huong Lan - Tren bon vung chien thuat
TTITLE9=Thanh Tuyen - Que huong tim giac ngu
TTITLE10=Huong Lan - 24 gio phep
EXTD=
EXTT0=
EXTT1=
EXTT2=
EXTT3=
EXTT4=
EXTT5=
EXTT6=
EXTT7=
EXTT8=
EXTT9=
EXTT10=
PLAYORDER=
